STARTFONT 2.1
COMMENT
COMMENT Converted from OpenType font "Q:\font stuff\winfont\kimidori mugcup.ttf" by "otf2bdf 3.0".
COMMENT
FONT -FreeType-kimidori mugcup-Medium-R-Normal--31-310-72-72-P-103-ISO10646-1
SIZE 31 72 72
FONTBOUNDINGBOX 40 31 0 -6
STARTPROPERTIES 19
FOUNDRY "FreeType"
FAMILY_NAME "kimidori mugcup"
WEIGHT_NAME "Medium"
SLANT "R"
SETWIDTH_NAME "Normal"
ADD_STYLE_NAME ""
PIXEL_SIZE 31
POINT_SIZE 310
RESOLUTION_X 72
RESOLUTION_Y 72
SPACING "P"
AVERAGE_WIDTH 103
CHARSET_REGISTRY "ISO10646"
CHARSET_ENCODING "1"
FONT_ASCENT 24
FONT_DESCENT 6
COPYRIGHT "copyright (c) 2002 by charlie. @ caramel syrup"
_OTF_FONTFILE "Q:\font stuff\winfont\kimidori mugcup.ttf"
_OTF_PSNAME "kimidori-mugcup"
ENDPROPERTIES
CHARS 219
STARTCHAR 0020
ENCODING 32
SWIDTH 516 0
DWIDTH 16 0
BBX 0 0 0 0
BITMAP
ENDCHAR
STARTCHAR 0021
ENCODING 33
SWIDTH 483 0
DWIDTH 15 0
BBX 10 25 0 0
BITMAP
FFC0
9240
9240
FFC0
9240
9240
FFC0
9240
9240
FFC0
9240
9240
FFC0
9240
9240
FFC0
0000
0000
FFC0
9240
9240
FFC0
9240
9240
FFC0
ENDCHAR
STARTCHAR 0022
ENCODING 34
SWIDTH 483 0
DWIDTH 15 0
BBX 10 7 0 18
BITMAP
F3C0
9240
9240
F3C0
9240
9240
F3C0
ENDCHAR
STARTCHAR 0023
ENCODING 35
SWIDTH 1161 0
DWIDTH 36 0
BBX 31 25 0 0
BITMAP
03F83F80
02482480
02482480
03F83F80
02482480
02482480
FFFFFFFE
92492492
92492492
FFFFFFFE
02482480
02482480
03F83F80
02482480
02482480
FFFFFFFE
92492492
92492492
FFFFFFFE
02482480
02482480
03F83F80
02482480
02482480
03F83F80
ENDCHAR
STARTCHAR 0024
ENCODING 36
SWIDTH 1064 0
DWIDTH 33 0
BBX 28 28 0 -3
BITMAP
000F0000
00090000
00090000
1FFFFF80
12492480
12492480
FFFFFFF0
92090490
92090490
FE0F07F0
92090000
92090000
FFFFFFF0
92492490
92492490
FFFFFFF0
00090490
00090490
FE0F07F0
92090490
92090490
FFFFFFF0
12492480
12492480
1FFFFF80
00090000
00090000
000F0000
ENDCHAR
STARTCHAR 0025
ENCODING 37
SWIDTH 1064 0
DWIDTH 33 0
BBX 28 25 0 0
BITMAP
FFC03FF0
92402490
92402490
FFC1FFF0
92412000
92412000
F3CFE000
92490000
92490000
FFCF0000
92490000
92490000
FFCF3FF0
00092490
00092490
007F3FF0
00482490
00482490
03F83CF0
02402490
02402490
FFC03FF0
92002490
92002490
FE003FF0
ENDCHAR
STARTCHAR 0026
ENCODING 38
SWIDTH 1064 0
DWIDTH 33 0
BBX 28 25 0 0
BITMAP
03FFE000
02492000
02492000
1FFFFC00
12412400
12412400
1FC1FC00
12412400
12412400
1FFFFCF0
12492090
12492090
FFFFFFF0
92092480
92092480
FE0FFF80
92092400
92092400
FE0FFFF0
92092490
92092490
FFFFE7F0
12490490
12490490
1FFF07F0
ENDCHAR
STARTCHAR 0027
ENCODING 39
SWIDTH 387 0
DWIDTH 12 0
BBX 7 13 0 12
BITMAP
FE
92
92
FE
92
92
FE
12
12
FE
90
90
F0
ENDCHAR
STARTCHAR 0028
ENCODING 40
SWIDTH 677 0
DWIDTH 21 0
BBX 16 25 0 0
BITMAP
03FF
0249
0249
1FFF
1240
1240
FFC0
9200
9200
FE00
9200
9200
FE00
9200
9200
FE00
9200
9200
FFC0
1240
1240
1FFF
0249
0249
03FF
ENDCHAR
STARTCHAR 0029
ENCODING 41
SWIDTH 677 0
DWIDTH 21 0
BBX 16 25 0 0
BITMAP
FFC0
9240
9240
FFF8
0248
0248
03FF
0049
0049
007F
0049
0049
007F
0049
0049
007F
0049
0049
03FF
0248
0248
FFF8
9240
9240
FFC0
ENDCHAR
STARTCHAR 002A
ENCODING 42
SWIDTH 774 0
DWIDTH 24 0
BBX 19 16 0 6
BITMAP
03F800
024800
024800
F3F9E0
924920
924920
FFFFE0
124900
124900
FFFFE0
924920
924920
F3F9E0
024800
024800
03F800
ENDCHAR
STARTCHAR 002B
ENCODING 43
SWIDTH 967 0
DWIDTH 30 0
BBX 25 25 0 0
BITMAP
007F0000
00490000
00490000
007F0000
00490000
00490000
007F0000
00490000
00490000
FFFFFF80
92492480
92492480
FFFFFF80
92492480
92492480
FFFFFF80
00490000
00490000
007F0000
00490000
00490000
007F0000
00490000
00490000
007F0000
ENDCHAR
STARTCHAR 002C
ENCODING 44
SWIDTH 387 0
DWIDTH 12 0
BBX 7 13 0 -6
BITMAP
FE
92
92
FE
92
92
FE
12
12
FE
90
90
F0
ENDCHAR
STARTCHAR 002D
ENCODING 45
SWIDTH 967 0
DWIDTH 30 0
BBX 25 7 0 9
BITMAP
FFFFFF80
92492480
92492480
FFFFFF80
92492480
92492480
FFFFFF80
ENDCHAR
STARTCHAR 002E
ENCODING 46
SWIDTH 387 0
DWIDTH 12 0
BBX 7 7 0 0
BITMAP
FE
92
92
FE
92
92
FE
ENDCHAR
STARTCHAR 002F
ENCODING 47
SWIDTH 1064 0
DWIDTH 33 0
BBX 28 25 0 0
BITMAP
000007F0
00000490
00000490
00003FF0
00002480
00002480
0001FF80
00012400
00012400
000FFC00
00092000
00092000
007FE000
00490000
00490000
03FF0000
02480000
02480000
1FF80000
12400000
12400000
FFC00000
92000000
92000000
FE000000
ENDCHAR
STARTCHAR 0030
ENCODING 48
SWIDTH 967 0
DWIDTH 30 0
BBX 25 25 0 0
BITMAP
1FFFFC00
12492400
12492400
FFFFFF80
92412480
92412480
FFC1FF80
92412480
92412480
FFCFFF80
92492480
92492480
FFFFFF80
92492480
92492480
FFF9FF80
92412480
92412480
FFC1FF80
92412480
92412480
FFFFFF80
12492400
12492400
1FFFFC00
ENDCHAR
STARTCHAR 0031
ENCODING 49
SWIDTH 677 0
DWIDTH 21 0
BBX 16 25 0 0
BITMAP
1FFF
1249
1249
FFFF
9249
9249
FFFF
0249
0249
03FF
0249
0249
03FF
0249
0249
03FF
0249
0249
03FF
0249
0249
03FF
0249
0249
03FF
ENDCHAR
STARTCHAR 0032
ENCODING 50
SWIDTH 967 0
DWIDTH 30 0
BBX 25 25 0 0
BITMAP
FFFFFC00
92492400
92492400
FFFFFF80
00012480
00012480
0001FF80
00012480
00012480
1FFFFF80
12492000
12492000
FFFFE000
92400000
92400000
FFC00000
92400000
92400000
FFC00000
92400000
92400000
FFFFFF80
12492480
12492480
1FFFFF80
ENDCHAR
STARTCHAR 0033
ENCODING 51
SWIDTH 967 0
DWIDTH 30 0
BBX 25 25 0 0
BITMAP
FFFFFC00
92492400
92492400
FFFFFF80
00012480
00012480
0001FF80
00012480
00012480
FFFFFF80
92492000
92492000
FFFFFF80
00012480
00012480
0001FF80
00012480
00012480
0001FF80
00012480
00012480
FFFFFF80
92492400
92492400
FFFFFC00
ENDCHAR
STARTCHAR 0034
ENCODING 52
SWIDTH 967 0
DWIDTH 30 0
BBX 25 25 0 0
BITMAP
03FFFF80
02492480
02492480
1FFFFF80
12492480
12492480
FFF9FF80
92412480
92412480
FFC1FF80
92412480
92412480
FFC1FF80
92412480
92412480
FFFFFF80
12492480
12492480
1FFFFF80
00012480
00012480
0001FF80
00012480
00012480
0001FF80
ENDCHAR
STARTCHAR 0035
ENCODING 53
SWIDTH 967 0
DWIDTH 30 0
BBX 25 25 0 0
BITMAP
FFFFFF80
92492480
92492480
FFFFFF80
92400000
92400000
FFC00000
92400000
92400000
FFFFFC00
12492400
12492400
1FFFFF80
00012480
00012480
0001FF80
00012480
00012480
FFC1FF80
92412480
92412480
FFFFFF80
92492400
92492400
FFFFFC00
ENDCHAR
STARTCHAR 0036
ENCODING 54
SWIDTH 967 0
DWIDTH 30 0
BBX 25 25 0 0
BITMAP
1FFFFC00
12492400
12492400
FFFFFF80
92412480
92412480
FFC1FF80
92400000
92400000
FFFFFC00
92492400
92492400
FFFFFF80
92412480
92412480
FFC1FF80
92412480
92412480
FFC1FF80
92412480
92412480
FFFFFF80
12492400
12492400
1FFFFC00
ENDCHAR
STARTCHAR 0037
ENCODING 55
SWIDTH 967 0
DWIDTH 30 0
BBX 25 25 0 0
BITMAP
FFFFFF80
92492480
92492480
FFFFFF80
92412480
92412480
FFC1FF80
92412480
92412480
FFC1FF80
92412480
92412480
FFC1FF80
00012480
00012480
0001FF80
00012480
00012480
0001FF80
00012480
00012480
0001FF80
00012480
00012480
0001FF80
ENDCHAR
STARTCHAR 0038
ENCODING 56
SWIDTH 967 0
DWIDTH 30 0
BBX 25 25 0 0
BITMAP
1FFFFC00
12492400
12492400
FFFFFF80
92412480
92412480
FFC1FF80
92412480
92412480
FFFFFF80
02492000
02492000
FFFFFF80
92412480
92412480
FFC1FF80
92412480
92412480
FFC1FF80
92412480
92412480
FFFFFF80
12492400
12492400
1FFFFC00
ENDCHAR
STARTCHAR 0039
ENCODING 57
SWIDTH 967 0
DWIDTH 30 0
BBX 25 25 0 0
BITMAP
1FFFFC00
12492400
12492400
FFFFFF80
92412480
92412480
FFC1FF80
92412480
92412480
FFC1FF80
92412480
92412480
FFFFFF80
12492480
12492480
1FFFFF80
00012480
00012480
0001FF80
00012480
00012480
0001FF80
00012480
00012480
0001FF80
ENDCHAR
STARTCHAR 003A
ENCODING 58
SWIDTH 387 0
DWIDTH 12 0
BBX 7 19 0 3
BITMAP
FE
92
92
FE
92
92
FE
00
00
00
00
00
FE
92
92
FE
92
92
FE
ENDCHAR
STARTCHAR 003B
ENCODING 59
SWIDTH 387 0
DWIDTH 12 0
BBX 7 25 0 -3
BITMAP
FE
92
92
FE
92
92
FE
00
00
00
00
00
FE
92
92
FE
92
92
FE
12
12
FE
90
90
F0
ENDCHAR
STARTCHAR 003C
ENCODING 60
SWIDTH 774 0
DWIDTH 24 0
BBX 19 25 0 0
BITMAP
000FE0
000920
000920
007FE0
004900
004900
03FF00
024800
024800
1FF800
124000
124000
FFC000
920000
920000
FFC000
124000
124000
1FF800
024800
024800
03FF00
004900
004900
007F00
ENDCHAR
STARTCHAR 003D
ENCODING 61
SWIDTH 967 0
DWIDTH 30 0
BBX 25 19 0 3
BITMAP
FFFFFF80
92492480
92492480
FFFFFF80
92492480
92492480
FFFFFF80
00000000
00000000
00000000
00000000
00000000
FFFFFF80
92492480
92492480
FFFFFF80
92492480
92492480
FFFFFF80
ENDCHAR
STARTCHAR 003E
ENCODING 62
SWIDTH 774 0
DWIDTH 24 0
BBX 19 25 0 0
BITMAP
FE0000
920000
920000
FFC000
124000
124000
1FF800
024800
024800
03FF00
004900
004900
007FE0
000920
000920
007FE0
004900
004900
03FF00
024800
024800
1FF800
124000
124000
1FC000
ENDCHAR
STARTCHAR 003F
ENCODING 63
SWIDTH 967 0
DWIDTH 30 0
BBX 25 25 0 0
BITMAP
1FFFFC00
12492400
12492400
FFFFFF80
92412480
92412480
FFC1FF80
92412480
92412480
FFCFFF80
00092400
00092400
007FFC00
00492000
00492000
007FE000
00000000
00000000
007FE000
00492000
00492000
007FE000
00492000
00492000
007FE000
ENDCHAR
STARTCHAR 0040
ENCODING 64
SWIDTH 1064 0
DWIDTH 33 0
BBX 28 25 0 0
BITMAP
1FFFFF80
12492480
12492480
FFFFFFF0
92000490
92000490
FE0FE7F0
92092490
92092490
FE7FE7F0
92490490
92490490
FE7F07F0
92490490
92490490
FE7FFFF0
92092480
92092480
FE0FFF80
92000000
92000000
FFFFFFF0
12492490
12492490
1FFFFFF0
ENDCHAR
STARTCHAR 0041
ENCODING 65
SWIDTH 967 0
DWIDTH 30 0
BBX 25 25 0 0
BITMAP
1FFFFC00
12492400
12492400
FFFFFF80
92412480
92412480
FFC1FF80
92412480
92412480
FFFFFF80
92492480
92492480
FFFFFF80
92412480
92412480
FFC1FF80
92412480
92412480
FFC1FF80
92412480
92412480
FFC1FF80
92412480
92412480
FFC1FF80
ENDCHAR
STARTCHAR 0042
ENCODING 66
SWIDTH 967 0
DWIDTH 30 0
BBX 25 25 0 0
BITMAP
FFFFFC00
92492400
92492400
FFFFFF80
92412480
92412480
FFC1FF80
92412480
92412480
FFFFFF80
92492000
92492000
FFFFFF80
92412480
92412480
FFC1FF80
92412480
92412480
FFC1FF80
92412480
92412480
FFFFFF80
92492400
92492400
FFFFFC00
ENDCHAR
STARTCHAR 0043
ENCODING 67
SWIDTH 967 0
DWIDTH 30 0
BBX 25 25 0 0
BITMAP
1FFFFC00
12492400
12492400
FFFFFF80
92412480
92412480
FFC1FF80
92412480
92412480
FFC1FF80
92400000
92400000
FFC1FF80
92412480
92412480
FFC1FF80
92412480
92412480
FFC1FF80
92412480
92412480
FFFFFF80
12492400
12492400
1FFFFC00
ENDCHAR
STARTCHAR 0044
ENCODING 68
SWIDTH 967 0
DWIDTH 30 0
BBX 25 25 0 0
BITMAP
FFFFFC00
92492400
92492400
FFFFFF80
92412480
92412480
FFC1FF80
92412480
92412480
FFC1FF80
92412480
92412480
FFC1FF80
92412480
92412480
FFC1FF80
92412480
92412480
FFC1FF80
92412480
92412480
FFFFFF80
92492400
92492400
FFFFFC00
ENDCHAR
STARTCHAR 0045
ENCODING 69
SWIDTH 967 0
DWIDTH 30 0
BBX 25 25 0 0
BITMAP
FFFFFF80
92492480
92492480
FFFFFF80
92400000
92400000
FFC00000
92400000
92400000
FFFFFF80
92492480
92492480
FFFFFF80
92400000
92400000
FFC00000
92400000
92400000
FFC00000
92400000
92400000
FFFFFF80
92492480
92492480
FFFFFF80
ENDCHAR
STARTCHAR 0046
ENCODING 70
SWIDTH 967 0
DWIDTH 30 0
BBX 25 25 0 0
BITMAP
FFFFFF80
92492480
92492480
FFFFFF80
92400000
92400000
FFC00000
92400000
92400000
FFFFFF80
92492480
92492480
FFFFFF80
92400000
92400000
FFC00000
92400000
92400000
FFC00000
92400000
92400000
FFC00000
92400000
92400000
FFC00000
ENDCHAR
STARTCHAR 0047
ENCODING 71
SWIDTH 967 0
DWIDTH 30 0
BBX 25 25 0 0
BITMAP
1FFFFC00
12492400
12492400
FFFFFF80
92412480
92412480
FFC1FF80
92400000
92400000
FFCFFF80
92492480
92492480
FFCFFF80
92412480
92412480
FFC1FF80
92412480
92412480
FFC1FF80
92412480
92412480
FFFFFF80
12492400
12492400
1FFFFC00
ENDCHAR
STARTCHAR 0048
ENCODING 72
SWIDTH 967 0
DWIDTH 30 0
BBX 25 25 0 0
BITMAP
FFC1FF80
92412480
92412480
FFC1FF80
92412480
92412480
FFC1FF80
92412480
92412480
FFFFFF80
92492480
92492480
FFFFFF80
92412480
92412480
FFC1FF80
92412480
92412480
FFC1FF80
92412480
92412480
FFC1FF80
92412480
92412480
FFC1FF80
ENDCHAR
STARTCHAR 0049
ENCODING 73
SWIDTH 870 0
DWIDTH 27 0
BBX 22 25 0 0
BITMAP
FFFFFC
924924
924924
FFFFFC
024900
024900
03FF00
024900
024900
03FF00
024900
024900
03FF00
024900
024900
03FF00
024900
024900
03FF00
024900
024900
FFFFFC
924924
924924
FFFFFC
ENDCHAR
STARTCHAR 004A
ENCODING 74
SWIDTH 967 0
DWIDTH 30 0
BBX 25 25 0 0
BITMAP
0001FF80
00012480
00012480
0001FF80
00012480
00012480
0001FF80
00012480
00012480
0001FF80
00012480
00012480
FFC1FF80
92412480
92412480
FFC1FF80
92412480
92412480
FFC1FF80
92412480
92412480
FFFFFF80
12492400
12492400
1FFFFC00
ENDCHAR
STARTCHAR 004B
ENCODING 75
SWIDTH 967 0
DWIDTH 30 0
BBX 25 25 0 0
BITMAP
FFC1FF80
92412480
92412480
FFC1FF80
92412480
92412480
FFC1FF80
92412400
92412400
FFFFFC00
92492000
92492000
FFFFFC00
92412400
92412400
FFC1FF80
92412480
92412480
FFC1FF80
92412480
92412480
FFC1FF80
92412480
92412480
FFC1FF80
ENDCHAR
STARTCHAR 004C
ENCODING 76
SWIDTH 967 0
DWIDTH 30 0
BBX 25 25 0 0
BITMAP
FFC00000
92400000
92400000
FFC00000
92400000
92400000
FFC00000
92400000
92400000
FFC00000
92400000
92400000
FFC00000
92400000
92400000
FFC00000
92400000
92400000
FFC00000
92400000
92400000
FFFFFF80
92492480
92492480
FFFFFF80
ENDCHAR
STARTCHAR 004D
ENCODING 77
SWIDTH 1064 0
DWIDTH 33 0
BBX 28 25 0 0
BITMAP
FFC03FF0
92402490
92402490
FFF9FFF0
92492490
92492490
FFFFFFF0
92492490
92492490
FFFFFFF0
92492490
92492490
FFCF3FF0
92402490
92402490
FFC03FF0
92402490
92402490
FFC03FF0
92402490
92402490
FFC03FF0
92402490
92402490
FFC03FF0
ENDCHAR
STARTCHAR 004E
ENCODING 78
SWIDTH 967 0
DWIDTH 30 0
BBX 25 25 0 0
BITMAP
FFC1FF80
92412480
92412480
FFC1FF80
92412480
92412480
FFF9FF80
92492480
92492480
FFFFFF80
92492480
92492480
FFFFFF80
92492480
92492480
FFCFFF80
92412480
92412480
FFC1FF80
92412480
92412480
FFC1FF80
92412480
92412480
FFC1FF80
ENDCHAR
STARTCHAR 004F
ENCODING 79
SWIDTH 967 0
DWIDTH 30 0
BBX 25 25 0 0
BITMAP
1FFFFC00
12492400
12492400
FFFFFF80
92412480
92412480
FFC1FF80
92412480
92412480
FFC1FF80
92412480
92412480
FFC1FF80
92412480
92412480
FFC1FF80
92412480
92412480
FFC1FF80
92412480
92412480
FFFFFF80
12492400
12492400
1FFFFC00
ENDCHAR
STARTCHAR 0050
ENCODING 80
SWIDTH 967 0
DWIDTH 30 0
BBX 25 25 0 0
BITMAP
FFFFFC00
92492400
92492400
FFFFFF80
92412480
92412480
FFC1FF80
92412480
92412480
FFC1FF80
92412480
92412480
FFFFFF80
92492400
92492400
FFFFFC00
92400000
92400000
FFC00000
92400000
92400000
FFC00000
92400000
92400000
FFC00000
ENDCHAR
STARTCHAR 0051
ENCODING 81
SWIDTH 967 0
DWIDTH 30 0
BBX 25 31 0 -6
BITMAP
1FFFFC00
12492400
12492400
FFFFFF80
92412480
92412480
FFC1FF80
92412480
92412480
FFC1FF80
92412480
92412480
FFC1FF80
92412480
92412480
FFC1FF80
92412480
92412480
FFC1FF80
92412480
92412480
FFFFFF80
12492400
12492400
1FFFFC00
00492000
00492000
007FFF80
00492480
00492480
007FFF80
ENDCHAR
STARTCHAR 0052
ENCODING 82
SWIDTH 967 0
DWIDTH 30 0
BBX 25 25 0 0
BITMAP
FFFFFC00
92492400
92492400
FFFFFF80
92412480
92412480
FFC1FF80
92412480
92412480
FFC1FF80
92412480
92412480
FFFFFF80
92492400
92492400
FFFFFF80
92412480
92412480
FFC1FF80
92412480
92412480
FFC1FF80
92412480
92412480
FFC1FF80
ENDCHAR
STARTCHAR 0053
ENCODING 83
SWIDTH 967 0
DWIDTH 30 0
BBX 25 25 0 0
BITMAP
1FFFFC00
12492400
12492400
FFFFFF80
92412480
92412480
FFC1FF80
92400000
92400000
FFFFFF80
92492480
92492480
FFFFFF80
00012480
00012480
FFC1FF80
92412480
92412480
FFC1FF80
92412480
92412480
FFFFFF80
12492400
12492400
1FFFFC00
ENDCHAR
STARTCHAR 0054
ENCODING 84
SWIDTH 1064 0
DWIDTH 33 0
BBX 28 25 0 0
BITMAP
FFFFFFF0
92492490
92492490
FFFFFFF0
90492090
90492090
F07FE0F0
00492000
00492000
007FE000
00492000
00492000
007FE000
00492000
00492000
007FE000
00492000
00492000
007FE000
00492000
00492000
03FFFC00
02492400
02492400
03FFFC00
ENDCHAR
STARTCHAR 0055
ENCODING 85
SWIDTH 967 0
DWIDTH 30 0
BBX 25 25 0 0
BITMAP
FFC1FF80
92412480
92412480
FFC1FF80
92412480
92412480
FFC1FF80
92412480
92412480
FFC1FF80
92412480
92412480
FFC1FF80
92412480
92412480
FFC1FF80
92412480
92412480
FFC1FF80
92412480
92412480
FFFFFF80
12492400
12492400
1FFFFC00
ENDCHAR
STARTCHAR 0056
ENCODING 86
SWIDTH 967 0
DWIDTH 30 0
BBX 25 25 0 0
BITMAP
FFC1FF80
92412480
92412480
FFC1FF80
92412480
92412480
FFC1FF80
92412480
92412480
FFC1FF80
92412480
92412480
FFC1FF80
92412480
92412480
FFC1FF80
92412480
92412480
FFC1FF80
12412400
12412400
1FFFFC00
02492000
02492000
03FFE000
ENDCHAR
STARTCHAR 0057
ENCODING 87
SWIDTH 1064 0
DWIDTH 33 0
BBX 28 25 0 0
BITMAP
FFC03FF0
92402490
92402490
FFC03FF0
92402490
92402490
FFC03FF0
92402490
92402490
FFCF3FF0
92492490
92492490
FFFFFFF0
92492490
92492490
FFFFFFF0
92492490
92492490
FFF9FFF0
92402490
92402490
FFC03FF0
12402480
12402480
1FC03F80
ENDCHAR
STARTCHAR 0058
ENCODING 88
SWIDTH 967 0
DWIDTH 30 0
BBX 25 25 0 0
BITMAP
FFC1FF80
92412480
92412480
FFC1FF80
92412480
92412480
FFC1FF80
12412400
12412400
1FFFFC00
02492000
02492000
1FFFFC00
12412400
12412400
FFC1FF80
92412480
92412480
FFC1FF80
92412480
92412480
FFC1FF80
92412480
92412480
FFC1FF80
ENDCHAR
STARTCHAR 0059
ENCODING 89
SWIDTH 967 0
DWIDTH 30 0
BBX 25 25 0 0
BITMAP
FFC1FF80
92412480
92412480
FFC1FF80
92412480
92412480
FFC1FF80
92412480
92412480
FFFFFF80
12492480
12492480
1FFFFF80
00492000
00492000
007FE000
00492000
00492000
007FE000
00492000
00492000
007FE000
00492000
00492000
007FE000
ENDCHAR
STARTCHAR 005A
ENCODING 90
SWIDTH 967 0
DWIDTH 30 0
BBX 25 25 0 0
BITMAP
FFFFFF80
92492480
92492480
FFFFFF80
00012480
00012480
000FFF80
00092400
00092400
007FFC00
00492000
00492000
03FFE000
02490000
02490000
1FFF0000
12480000
12480000
FFF80000
92400000
92400000
FFFFFF80
92492480
92492480
FFFFFF80
ENDCHAR
STARTCHAR 005B
ENCODING 91
SWIDTH 580 0
DWIDTH 18 0
BBX 13 25 0 0
BITMAP
FFF8
9248
9248
FFF8
9200
9200
FE00
9200
9200
FE00
9200
9200
FE00
9200
9200
FE00
9200
9200
FE00
9200
9200
FFF8
9248
9248
FFF8
ENDCHAR
STARTCHAR 005C
ENCODING 92
SWIDTH 1064 0
DWIDTH 33 0
BBX 28 25 0 0
BITMAP
FE000000
92000000
92000000
FFC00000
12400000
12400000
1FF80000
02480000
02480000
03FF0000
00490000
00490000
007FE000
00092000
00092000
000FFC00
00012400
00012400
0001FF80
00002480
00002480
00003FF0
00000490
00000490
000007F0
ENDCHAR
STARTCHAR 005D
ENCODING 93
SWIDTH 580 0
DWIDTH 18 0
BBX 13 25 0 0
BITMAP
FFF8
9248
9248
FFF8
0248
0248
03F8
0248
0248
03F8
0248
0248
03F8
0248
0248
03F8
0248
0248
03F8
0248
0248
FFF8
9248
9248
FFF8
ENDCHAR
STARTCHAR 005E
ENCODING 94
SWIDTH 870 0
DWIDTH 27 0
BBX 22 13 0 12
BITMAP
007800
004800
004800
03FF00
024900
024900
1FFFE0
124920
124920
FFCFFC
920124
920124
FE01FC
ENDCHAR
STARTCHAR 005F
ENCODING 95
SWIDTH 967 0
DWIDTH 30 0
BBX 25 7 0 0
BITMAP
FFFFFF80
92492480
92492480
FFFFFF80
92492480
92492480
FFFFFF80
ENDCHAR
STARTCHAR 0060
ENCODING 96
SWIDTH 387 0
DWIDTH 12 0
BBX 7 13 0 12
BITMAP
FE
92
92
FE
92
92
FE
90
90
FE
12
12
1E
ENDCHAR
STARTCHAR 0061
ENCODING 97
SWIDTH 967 0
DWIDTH 30 0
BBX 25 22 0 0
BITMAP
1FFFFC00
12492400
12492400
FFFFFF80
92412480
92412480
FFC1FF80
00012480
00012480
1FFFFF80
12492480
12492480
FFFFFF80
92412480
92412480
FFC1FF80
92412480
92412480
FFFFFF80
12492400
12492400
1FFFFC00
ENDCHAR
STARTCHAR 0062
ENCODING 98
SWIDTH 967 0
DWIDTH 30 0
BBX 25 25 0 0
BITMAP
FFC00000
92400000
92400000
FFC00000
92400000
92400000
FFC00000
92400000
92400000
FFFFFC00
92492400
92492400
FFFFFF80
92412480
92412480
FFC1FF80
92412480
92412480
FFC1FF80
92412480
92412480
FFFFFF80
92492400
92492400
FFFFFC00
ENDCHAR
STARTCHAR 0063
ENCODING 99
SWIDTH 967 0
DWIDTH 30 0
BBX 25 22 0 0
BITMAP
1FFFFC00
12492400
12492400
FFFFFF80
92412480
92412480
FFC1FF80
92412480
92412480
FFC1FF80
92400000
92400000
FFC1FF80
92412480
92412480
FFC1FF80
92412480
92412480
FFFFFF80
12492400
12492400
1FFFFC00
ENDCHAR
STARTCHAR 0064
ENCODING 100
SWIDTH 967 0
DWIDTH 30 0
BBX 25 25 0 0
BITMAP
0001FF80
00012480
00012480
0001FF80
00012480
00012480
0001FF80
00012480
00012480
1FFFFF80
12492480
12492480
FFFFFF80
92412480
92412480
FFC1FF80
92412480
92412480
FFC1FF80
92412480
92412480
FFFFFF80
12492480
12492480
1FFFFF80
ENDCHAR
STARTCHAR 0065
ENCODING 101
SWIDTH 967 0
DWIDTH 30 0
BBX 25 22 0 0
BITMAP
1FFFFC00
12492400
12492400
FFFFFF80
92412480
92412480
FFC1FF80
92412480
92412480
FFFFFF80
92492480
92492480
FFFFFF80
92400000
92400000
FFC1FF80
92412480
92412480
FFFFFF80
12492400
12492400
1FFFFC00
ENDCHAR
STARTCHAR 0066
ENCODING 102
SWIDTH 967 0
DWIDTH 30 0
BBX 25 25 0 0
BITMAP
007FFF80
00492480
00492480
03FFFF80
02490000
02490000
03FF0000
02490000
02490000
FFFFFF80
92492480
92492480
FFFFFF80
02490000
02490000
03FF0000
02490000
02490000
03FF0000
02490000
02490000
03FF0000
02490000
02490000
03FF0000
ENDCHAR
STARTCHAR 0067
ENCODING 103
SWIDTH 967 0
DWIDTH 30 0
BBX 25 28 0 -6
BITMAP
1FFFFC00
12492400
12492400
FFFFFF80
92412480
92412480
FFC1FF80
92412480
92412480
FFC1FF80
92412480
92412480
FFC1FF80
92412480
92412480
FFFFFF80
12492480
12492480
1FFFFF80
00012480
00012480
FFC1FF80
92412480
92412480
FFFFFF80
12492400
12492400
1FFFFC00
ENDCHAR
STARTCHAR 0068
ENCODING 104
SWIDTH 967 0
DWIDTH 30 0
BBX 25 25 0 0
BITMAP
FFC00000
92400000
92400000
FFC00000
92400000
92400000
FFC00000
92400000
92400000
FFFFFC00
92492400
92492400
FFFFFF80
92412480
92412480
FFC1FF80
92412480
92412480
FFC1FF80
92412480
92412480
FFC1FF80
92412480
92412480
FFC1FF80
ENDCHAR
STARTCHAR 0069
ENCODING 105
SWIDTH 483 0
DWIDTH 15 0
BBX 10 25 0 0
BITMAP
FFC0
9240
9240
FFC0
9240
9240
FFC0
0000
0000
0000
0000
0000
FFC0
9240
9240
FFC0
9240
9240
FFC0
9240
9240
FFC0
9240
9240
FFC0
ENDCHAR
STARTCHAR 006A
ENCODING 106
SWIDTH 967 0
DWIDTH 30 0
BBX 25 31 0 -6
BITMAP
0001FF80
00012480
00012480
0001FF80
00012480
00012480
0001FF80
00000000
00000000
00000000
00000000
00000000
0001FF80
00012480
00012480
0001FF80
00012480
00012480
0001FF80
00012480
00012480
FFC1FF80
92412480
92412480
FFC1FF80
92412480
92412480
FFFFFF80
12492400
12492400
1FFFFC00
ENDCHAR
STARTCHAR 006B
ENCODING 107
SWIDTH 967 0
DWIDTH 30 0
BBX 25 25 0 0
BITMAP
FFC00000
92400000
92400000
FFC00000
92400000
92400000
FFC00000
92400000
92400000
FFC1FF80
92412480
92412480
FFC1FF80
92412400
92412400
FFFFFC00
92492000
92492000
FFFFFC00
92412400
92412400
FFC1FF80
92412480
92412480
FFC1FF80
ENDCHAR
STARTCHAR 006C
ENCODING 108
SWIDTH 677 0
DWIDTH 21 0
BBX 16 25 0 0
BITMAP
FFC0
9240
9240
FFC0
9240
9240
FFC0
9240
9240
FFC0
9240
9240
FFC0
9240
9240
FFC0
9240
9240
FFC0
9240
9240
FFFF
9249
9249
FFFF
ENDCHAR
STARTCHAR 006D
ENCODING 109
SWIDTH 1451 0
DWIDTH 45 0
BBX 40 22 0 0
BITMAP
FFCFFF9FF8
9249249248
9249249248
FFFFFFFFFF
9249249249
9249249249
FFFFFFFFFF
9241248249
9241248249
FFC1FF83FF
9241248249
9241248249
FFC1FF83FF
9241248249
9241248249
FFC1FF83FF
9241248249
9241248249
FFC1FF83FF
9241248249
9241248249
FFC1FF83FF
ENDCHAR
STARTCHAR 006E
ENCODING 110
SWIDTH 967 0
DWIDTH 30 0
BBX 25 22 0 0
BITMAP
FFCFFC00
92492400
92492400
FFFFFF80
92492480
92492480
FFFFFF80
92492480
92492480
FFF9FF80
92412480
92412480
FFC1FF80
92412480
92412480
FFC1FF80
92412480
92412480
FFC1FF80
92412480
92412480
FFC1FF80
ENDCHAR
STARTCHAR 006F
ENCODING 111
SWIDTH 967 0
DWIDTH 30 0
BBX 25 22 0 0
BITMAP
1FFFFC00
12492400
12492400
FFFFFF80
92412480
92412480
FFC1FF80
92412480
92412480
FFC1FF80
92412480
92412480
FFC1FF80
92412480
92412480
FFC1FF80
92412480
92412480
FFFFFF80
12492400
12492400
1FFFFC00
ENDCHAR
STARTCHAR 0070
ENCODING 112
SWIDTH 967 0
DWIDTH 30 0
BBX 25 28 0 -6
BITMAP
FFFFFC00
92492400
92492400
FFFFFF80
92412480
92412480
FFC1FF80
92412480
92412480
FFC1FF80
92412480
92412480
FFFFFF80
92492480
92492480
FFFFFF80
92492400
92492400
FFFFFC00
92400000
92400000
FFC00000
92400000
92400000
FFC00000
92400000
92400000
FFC00000
ENDCHAR
STARTCHAR 0071
ENCODING 113
SWIDTH 967 0
DWIDTH 30 0
BBX 25 28 0 -6
BITMAP
1FFFFF80
12492480
12492480
FFFFFF80
92412480
92412480
FFC1FF80
92412480
92412480
FFC1FF80
92412480
92412480
FFFFFF80
92492480
92492480
FFFFFF80
12492480
12492480
1FFFFF80
00012480
00012480
0001FF80
00012480
00012480
0001FF80
00012480
00012480
0001FF80
ENDCHAR
STARTCHAR 0072
ENCODING 114
SWIDTH 967 0
DWIDTH 30 0
BBX 25 22 0 0
BITMAP
FFFFFF80
92492480
92492480
FFFFFF80
92412480
92412480
FFC1FF80
92400000
92400000
FFC00000
92400000
92400000
FFC00000
92400000
92400000
FFC00000
92400000
92400000
FFC00000
92400000
92400000
FFC00000
ENDCHAR
STARTCHAR 0073
ENCODING 115
SWIDTH 967 0
DWIDTH 30 0
BBX 25 22 0 0
BITMAP
1FFFFC00
12492400
12492400
FFFFFF80
92412480
92412480
FFC1FF80
92400000
92400000
FFFFFF80
92492480
92492480
FFFFFF80
00012480
00012480
FFC1FF80
92412480
92412480
FFFFFF80
12492400
12492400
1FFFFC00
ENDCHAR
STARTCHAR 0074
ENCODING 116
SWIDTH 967 0
DWIDTH 30 0
BBX 25 25 0 0
BITMAP
1FF80000
12480000
12480000
1FF80000
12480000
12480000
FFFFFF80
92492480
92492480
FFFFFF80
12480000
12480000
1FF80000
12480000
12480000
1FF83F80
12482480
12482480
1FF83F80
12482480
12482480
1FFFFF80
02492400
02492400
03FFFC00
ENDCHAR
STARTCHAR 0075
ENCODING 117
SWIDTH 967 0
DWIDTH 30 0
BBX 25 22 0 0
BITMAP
FFC1FF80
92412480
92412480
FFC1FF80
92412480
92412480
FFC1FF80
92412480
92412480
FFC1FF80
92412480
92412480
FFC1FF80
92412480
92412480
FFC1FF80
92412480
92412480
FFFFFF80
12492480
12492480
1FFFFF80
ENDCHAR
STARTCHAR 0076
ENCODING 118
SWIDTH 967 0
DWIDTH 30 0
BBX 25 22 0 0
BITMAP
FFC1FF80
92412480
92412480
FFC1FF80
92412480
92412480
FFC1FF80
92412480
92412480
FFC1FF80
92412480
92412480
FFC1FF80
92412480
92412480
FFC1FF80
12412400
12412400
1FFFFC00
02492000
02492000
03FFE000
ENDCHAR
STARTCHAR 0077
ENCODING 119
SWIDTH 1064 0
DWIDTH 33 0
BBX 28 22 0 0
BITMAP
FFC03FF0
92402490
92402490
FFC03FF0
92402490
92402490
FFCF3FF0
92492490
92492490
FFFFFFF0
92492490
92492490
FFFFFFF0
92492490
92492490
FFF9FFF0
92402490
92402490
FFC03FF0
12402480
12402480
1FC03F80
ENDCHAR
STARTCHAR 0078
ENCODING 120
SWIDTH 967 0
DWIDTH 30 0
BBX 25 22 0 0
BITMAP
FFC1FF80
92412480
92412480
FFC1FF80
92412480
92412480
FFC1FF80
12412400
12412400
1FFFFC00
02492000
02492000
1FFFFC00
12412400
12412400
FFC1FF80
92412480
92412480
FFC1FF80
92412480
92412480
FFC1FF80
ENDCHAR
STARTCHAR 0079
ENCODING 121
SWIDTH 967 0
DWIDTH 30 0
BBX 25 28 0 -6
BITMAP
FFC1FF80
92412480
92412480
FFC1FF80
92412480
92412480
FFC1FF80
92412480
92412480
FFFFFF80
12492480
12492480
1FFFFF80
00012480
00012480
0001FF80
00012480
00012480
FFC1FF80
92412480
92412480
FFC1FF80
92412480
92412480
FFFFFF80
12492400
12492400
1FFFFC00
ENDCHAR
STARTCHAR 007A
ENCODING 122
SWIDTH 967 0
DWIDTH 30 0
BBX 25 22 0 0
BITMAP
FFFFFF80
92492480
92492480
FFFFFF80
00012480
00012480
000FFF80
00092400
00092400
007FFC00
00492000
00492000
03FFE000
02490000
02490000
1FFF0000
12480000
12480000
FFFFFF80
92492480
92492480
FFFFFF80
ENDCHAR
STARTCHAR 007B
ENCODING 123
SWIDTH 677 0
DWIDTH 21 0
BBX 16 25 0 0
BITMAP
03FF
0249
0249
1FFF
1240
1240
1FC0
1240
1240
FFC0
9200
9200
FFC0
1240
1240
1FC0
1240
1240
1FC0
1240
1240
1FFF
0249
0249
03FF
ENDCHAR
STARTCHAR 007C
ENCODING 124
SWIDTH 387 0
DWIDTH 12 0
BBX 7 25 0 0
BITMAP
FE
92
92
FE
92
92
FE
92
92
FE
92
92
FE
92
92
FE
92
92
FE
92
92
FE
92
92
FE
ENDCHAR
STARTCHAR 007D
ENCODING 125
SWIDTH 677 0
DWIDTH 21 0
BBX 16 25 0 0
BITMAP
FFC0
9240
9240
FFF8
0248
0248
03F8
0248
0248
03FF
0049
0049
03FF
0248
0248
03F8
0248
0248
03F8
0248
0248
FFF8
9240
9240
FFC0
ENDCHAR
STARTCHAR 007E
ENCODING 126
SWIDTH 967 0
DWIDTH 30 0
BBX 25 13 0 12
BITMAP
00780780
00480480
00480480
03FF3F80
02492480
02492480
1FFFFF80
12492400
12492400
FFCFFC00
92012000
92012000
FE01E000
ENDCHAR
STARTCHAR 00A0
ENCODING 160
SWIDTH 516 0
DWIDTH 16 0
BBX 0 0 0 0
BITMAP
ENDCHAR
STARTCHAR 00A1
ENCODING 161
SWIDTH 516 0
DWIDTH 16 0
BBX 0 0 0 0
BITMAP
ENDCHAR
STARTCHAR 00A2
ENCODING 162
SWIDTH 516 0
DWIDTH 16 0
BBX 0 0 0 0
BITMAP
ENDCHAR
STARTCHAR 00A3
ENCODING 163
SWIDTH 516 0
DWIDTH 16 0
BBX 0 0 0 0
BITMAP
ENDCHAR
STARTCHAR 00A4
ENCODING 164
SWIDTH 516 0
DWIDTH 16 0
BBX 0 0 0 0
BITMAP
ENDCHAR
STARTCHAR 00A5
ENCODING 165
SWIDTH 967 0
DWIDTH 30 0
BBX 25 25 0 0
BITMAP
FFC1FF80
92412480
92412480
FFC1FF80
92412480
92412480
FFC1FF80
92412480
92412480
FFFFFF80
12492400
12492400
1FFFFC00
00490000
00490000
1FFFFC00
12492400
12492400
1FFFFC00
00490000
00490000
007F0000
00490000
00490000
007F0000
ENDCHAR
STARTCHAR 00A6
ENCODING 166
SWIDTH 516 0
DWIDTH 16 0
BBX 0 0 0 0
BITMAP
ENDCHAR
STARTCHAR 00A7
ENCODING 167
SWIDTH 516 0
DWIDTH 16 0
BBX 0 0 0 0
BITMAP
ENDCHAR
STARTCHAR 00A8
ENCODING 168
SWIDTH 516 0
DWIDTH 16 0
BBX 0 0 0 0
BITMAP
ENDCHAR
STARTCHAR 00A9
ENCODING 169
SWIDTH 516 0
DWIDTH 16 0
BBX 0 0 0 0
BITMAP
ENDCHAR
STARTCHAR 00AA
ENCODING 170
SWIDTH 516 0
DWIDTH 16 0
BBX 0 0 0 0
BITMAP
ENDCHAR
STARTCHAR 00AB
ENCODING 171
SWIDTH 516 0
DWIDTH 16 0
BBX 0 0 0 0
BITMAP
ENDCHAR
STARTCHAR 00AC
ENCODING 172
SWIDTH 516 0
DWIDTH 16 0
BBX 0 0 0 0
BITMAP
ENDCHAR
STARTCHAR 00AD
ENCODING 173
SWIDTH 516 0
DWIDTH 16 0
BBX 0 0 0 0
BITMAP
ENDCHAR
STARTCHAR 00AE
ENCODING 174
SWIDTH 516 0
DWIDTH 16 0
BBX 0 0 0 0
BITMAP
ENDCHAR
STARTCHAR 00AF
ENCODING 175
SWIDTH 516 0
DWIDTH 16 0
BBX 0 0 0 0
BITMAP
ENDCHAR
STARTCHAR 00B0
ENCODING 176
SWIDTH 516 0
DWIDTH 16 0
BBX 0 0 0 0
BITMAP
ENDCHAR
STARTCHAR 00B1
ENCODING 177
SWIDTH 516 0
DWIDTH 16 0
BBX 0 0 0 0
BITMAP
ENDCHAR
STARTCHAR 00B2
ENCODING 178
SWIDTH 516 0
DWIDTH 16 0
BBX 0 0 0 0
BITMAP
ENDCHAR
STARTCHAR 00B3
ENCODING 179
SWIDTH 516 0
DWIDTH 16 0
BBX 0 0 0 0
BITMAP
ENDCHAR
STARTCHAR 00B4
ENCODING 180
SWIDTH 516 0
DWIDTH 16 0
BBX 0 0 0 0
BITMAP
ENDCHAR
STARTCHAR 00B5
ENCODING 181
SWIDTH 516 0
DWIDTH 16 0
BBX 0 0 0 0
BITMAP
ENDCHAR
STARTCHAR 00B6
ENCODING 182
SWIDTH 516 0
DWIDTH 16 0
BBX 0 0 0 0
BITMAP
ENDCHAR
STARTCHAR 00B7
ENCODING 183
SWIDTH 516 0
DWIDTH 16 0
BBX 0 0 0 0
BITMAP
ENDCHAR
STARTCHAR 00B8
ENCODING 184
SWIDTH 516 0
DWIDTH 16 0
BBX 0 0 0 0
BITMAP
ENDCHAR
STARTCHAR 00B9
ENCODING 185
SWIDTH 516 0
DWIDTH 16 0
BBX 0 0 0 0
BITMAP
ENDCHAR
STARTCHAR 00BA
ENCODING 186
SWIDTH 516 0
DWIDTH 16 0
BBX 0 0 0 0
BITMAP
ENDCHAR
STARTCHAR 00BB
ENCODING 187
SWIDTH 516 0
DWIDTH 16 0
BBX 0 0 0 0
BITMAP
ENDCHAR
STARTCHAR 00BC
ENCODING 188
SWIDTH 516 0
DWIDTH 16 0
BBX 0 0 0 0
BITMAP
ENDCHAR
STARTCHAR 00BD
ENCODING 189
SWIDTH 516 0
DWIDTH 16 0
BBX 0 0 0 0
BITMAP
ENDCHAR
STARTCHAR 00BE
ENCODING 190
SWIDTH 516 0
DWIDTH 16 0
BBX 0 0 0 0
BITMAP
ENDCHAR
STARTCHAR 00BF
ENCODING 191
SWIDTH 516 0
DWIDTH 16 0
BBX 0 0 0 0
BITMAP
ENDCHAR
STARTCHAR 00C0
ENCODING 192
SWIDTH 516 0
DWIDTH 16 0
BBX 0 0 0 0
BITMAP
ENDCHAR
STARTCHAR 00C1
ENCODING 193
SWIDTH 516 0
DWIDTH 16 0
BBX 0 0 0 0
BITMAP
ENDCHAR
STARTCHAR 00C2
ENCODING 194
SWIDTH 516 0
DWIDTH 16 0
BBX 0 0 0 0
BITMAP
ENDCHAR
STARTCHAR 00C3
ENCODING 195
SWIDTH 516 0
DWIDTH 16 0
BBX 0 0 0 0
BITMAP
ENDCHAR
STARTCHAR 00C4
ENCODING 196
SWIDTH 516 0
DWIDTH 16 0
BBX 0 0 0 0
BITMAP
ENDCHAR
STARTCHAR 00C5
ENCODING 197
SWIDTH 516 0
DWIDTH 16 0
BBX 0 0 0 0
BITMAP
ENDCHAR
STARTCHAR 00C6
ENCODING 198
SWIDTH 516 0
DWIDTH 16 0
BBX 0 0 0 0
BITMAP
ENDCHAR
STARTCHAR 00C7
ENCODING 199
SWIDTH 516 0
DWIDTH 16 0
BBX 0 0 0 0
BITMAP
ENDCHAR
STARTCHAR 00C8
ENCODING 200
SWIDTH 516 0
DWIDTH 16 0
BBX 0 0 0 0
BITMAP
ENDCHAR
STARTCHAR 00C9
ENCODING 201
SWIDTH 516 0
DWIDTH 16 0
BBX 0 0 0 0
BITMAP
ENDCHAR
STARTCHAR 00CA
ENCODING 202
SWIDTH 516 0
DWIDTH 16 0
BBX 0 0 0 0
BITMAP
ENDCHAR
STARTCHAR 00CB
ENCODING 203
SWIDTH 516 0
DWIDTH 16 0
BBX 0 0 0 0
BITMAP
ENDCHAR
STARTCHAR 00CC
ENCODING 204
SWIDTH 516 0
DWIDTH 16 0
BBX 0 0 0 0
BITMAP
ENDCHAR
STARTCHAR 00CD
ENCODING 205
SWIDTH 516 0
DWIDTH 16 0
BBX 0 0 0 0
BITMAP
ENDCHAR
STARTCHAR 00CE
ENCODING 206
SWIDTH 516 0
DWIDTH 16 0
BBX 0 0 0 0
BITMAP
ENDCHAR
STARTCHAR 00CF
ENCODING 207
SWIDTH 516 0
DWIDTH 16 0
BBX 0 0 0 0
BITMAP
ENDCHAR
STARTCHAR 00D0
ENCODING 208
SWIDTH 516 0
DWIDTH 16 0
BBX 0 0 0 0
BITMAP
ENDCHAR
STARTCHAR 00D1
ENCODING 209
SWIDTH 516 0
DWIDTH 16 0
BBX 0 0 0 0
BITMAP
ENDCHAR
STARTCHAR 00D2
ENCODING 210
SWIDTH 516 0
DWIDTH 16 0
BBX 0 0 0 0
BITMAP
ENDCHAR
STARTCHAR 00D3
ENCODING 211
SWIDTH 516 0
DWIDTH 16 0
BBX 0 0 0 0
BITMAP
ENDCHAR
STARTCHAR 00D4
ENCODING 212
SWIDTH 516 0
DWIDTH 16 0
BBX 0 0 0 0
BITMAP
ENDCHAR
STARTCHAR 00D5
ENCODING 213
SWIDTH 516 0
DWIDTH 16 0
BBX 0 0 0 0
BITMAP
ENDCHAR
STARTCHAR 00D6
ENCODING 214
SWIDTH 516 0
DWIDTH 16 0
BBX 0 0 0 0
BITMAP
ENDCHAR
STARTCHAR 00D7
ENCODING 215
SWIDTH 516 0
DWIDTH 16 0
BBX 0 0 0 0
BITMAP
ENDCHAR
STARTCHAR 00D8
ENCODING 216
SWIDTH 516 0
DWIDTH 16 0
BBX 0 0 0 0
BITMAP
ENDCHAR
STARTCHAR 00D9
ENCODING 217
SWIDTH 516 0
DWIDTH 16 0
BBX 0 0 0 0
BITMAP
ENDCHAR
STARTCHAR 00DA
ENCODING 218
SWIDTH 516 0
DWIDTH 16 0
BBX 0 0 0 0
BITMAP
ENDCHAR
STARTCHAR 00DB
ENCODING 219
SWIDTH 516 0
DWIDTH 16 0
BBX 0 0 0 0
BITMAP
ENDCHAR
STARTCHAR 00DC
ENCODING 220
SWIDTH 516 0
DWIDTH 16 0
BBX 0 0 0 0
BITMAP
ENDCHAR
STARTCHAR 00DD
ENCODING 221
SWIDTH 516 0
DWIDTH 16 0
BBX 0 0 0 0
BITMAP
ENDCHAR
STARTCHAR 00DE
ENCODING 222
SWIDTH 516 0
DWIDTH 16 0
BBX 0 0 0 0
BITMAP
ENDCHAR
STARTCHAR 00DF
ENCODING 223
SWIDTH 516 0
DWIDTH 16 0
BBX 0 0 0 0
BITMAP
ENDCHAR
STARTCHAR 00E0
ENCODING 224
SWIDTH 516 0
DWIDTH 16 0
BBX 0 0 0 0
BITMAP
ENDCHAR
STARTCHAR 00E1
ENCODING 225
SWIDTH 516 0
DWIDTH 16 0
BBX 0 0 0 0
BITMAP
ENDCHAR
STARTCHAR 00E2
ENCODING 226
SWIDTH 516 0
DWIDTH 16 0
BBX 0 0 0 0
BITMAP
ENDCHAR
STARTCHAR 00E3
ENCODING 227
SWIDTH 516 0
DWIDTH 16 0
BBX 0 0 0 0
BITMAP
ENDCHAR
STARTCHAR 00E4
ENCODING 228
SWIDTH 516 0
DWIDTH 16 0
BBX 0 0 0 0
BITMAP
ENDCHAR
STARTCHAR 00E5
ENCODING 229
SWIDTH 516 0
DWIDTH 16 0
BBX 0 0 0 0
BITMAP
ENDCHAR
STARTCHAR 00E6
ENCODING 230
SWIDTH 516 0
DWIDTH 16 0
BBX 0 0 0 0
BITMAP
ENDCHAR
STARTCHAR 00E7
ENCODING 231
SWIDTH 516 0
DWIDTH 16 0
BBX 0 0 0 0
BITMAP
ENDCHAR
STARTCHAR 00E8
ENCODING 232
SWIDTH 516 0
DWIDTH 16 0
BBX 0 0 0 0
BITMAP
ENDCHAR
STARTCHAR 00E9
ENCODING 233
SWIDTH 516 0
DWIDTH 16 0
BBX 0 0 0 0
BITMAP
ENDCHAR
STARTCHAR 00EA
ENCODING 234
SWIDTH 516 0
DWIDTH 16 0
BBX 0 0 0 0
BITMAP
ENDCHAR
STARTCHAR 00EB
ENCODING 235
SWIDTH 516 0
DWIDTH 16 0
BBX 0 0 0 0
BITMAP
ENDCHAR
STARTCHAR 00EC
ENCODING 236
SWIDTH 516 0
DWIDTH 16 0
BBX 0 0 0 0
BITMAP
ENDCHAR
STARTCHAR 00ED
ENCODING 237
SWIDTH 516 0
DWIDTH 16 0
BBX 0 0 0 0
BITMAP
ENDCHAR
STARTCHAR 00EE
ENCODING 238
SWIDTH 516 0
DWIDTH 16 0
BBX 0 0 0 0
BITMAP
ENDCHAR
STARTCHAR 00EF
ENCODING 239
SWIDTH 516 0
DWIDTH 16 0
BBX 0 0 0 0
BITMAP
ENDCHAR
STARTCHAR 00F0
ENCODING 240
SWIDTH 516 0
DWIDTH 16 0
BBX 0 0 0 0
BITMAP
ENDCHAR
STARTCHAR 00F1
ENCODING 241
SWIDTH 516 0
DWIDTH 16 0
BBX 0 0 0 0
BITMAP
ENDCHAR
STARTCHAR 00F2
ENCODING 242
SWIDTH 516 0
DWIDTH 16 0
BBX 0 0 0 0
BITMAP
ENDCHAR
STARTCHAR 00F3
ENCODING 243
SWIDTH 516 0
DWIDTH 16 0
BBX 0 0 0 0
BITMAP
ENDCHAR
STARTCHAR 00F4
ENCODING 244
SWIDTH 516 0
DWIDTH 16 0
BBX 0 0 0 0
BITMAP
ENDCHAR
STARTCHAR 00F5
ENCODING 245
SWIDTH 516 0
DWIDTH 16 0
BBX 0 0 0 0
BITMAP
ENDCHAR
STARTCHAR 00F6
ENCODING 246
SWIDTH 516 0
DWIDTH 16 0
BBX 0 0 0 0
BITMAP
ENDCHAR
STARTCHAR 00F7
ENCODING 247
SWIDTH 516 0
DWIDTH 16 0
BBX 0 0 0 0
BITMAP
ENDCHAR
STARTCHAR 00F8
ENCODING 248
SWIDTH 516 0
DWIDTH 16 0
BBX 0 0 0 0
BITMAP
ENDCHAR
STARTCHAR 00F9
ENCODING 249
SWIDTH 516 0
DWIDTH 16 0
BBX 0 0 0 0
BITMAP
ENDCHAR
STARTCHAR 00FA
ENCODING 250
SWIDTH 516 0
DWIDTH 16 0
BBX 0 0 0 0
BITMAP
ENDCHAR
STARTCHAR 00FB
ENCODING 251
SWIDTH 516 0
DWIDTH 16 0
BBX 0 0 0 0
BITMAP
ENDCHAR
STARTCHAR 00FC
ENCODING 252
SWIDTH 516 0
DWIDTH 16 0
BBX 0 0 0 0
BITMAP
ENDCHAR
STARTCHAR 00FD
ENCODING 253
SWIDTH 516 0
DWIDTH 16 0
BBX 0 0 0 0
BITMAP
ENDCHAR
STARTCHAR 00FE
ENCODING 254
SWIDTH 516 0
DWIDTH 16 0
BBX 0 0 0 0
BITMAP
ENDCHAR
STARTCHAR 00FF
ENCODING 255
SWIDTH 516 0
DWIDTH 16 0
BBX 0 0 0 0
BITMAP
ENDCHAR
STARTCHAR 0152
ENCODING 338
SWIDTH 516 0
DWIDTH 16 0
BBX 0 0 0 0
BITMAP
ENDCHAR
STARTCHAR 0153
ENCODING 339
SWIDTH 516 0
DWIDTH 16 0
BBX 0 0 0 0
BITMAP
ENDCHAR
STARTCHAR 0160
ENCODING 352
SWIDTH 516 0
DWIDTH 16 0
BBX 0 0 0 0
BITMAP
ENDCHAR
STARTCHAR 0161
ENCODING 353
SWIDTH 516 0
DWIDTH 16 0
BBX 0 0 0 0
BITMAP
ENDCHAR
STARTCHAR 0178
ENCODING 376
SWIDTH 516 0
DWIDTH 16 0
BBX 0 0 0 0
BITMAP
ENDCHAR
STARTCHAR 017D
ENCODING 381
SWIDTH 516 0
DWIDTH 16 0
BBX 0 0 0 0
BITMAP
ENDCHAR
STARTCHAR 017E
ENCODING 382
SWIDTH 516 0
DWIDTH 16 0
BBX 0 0 0 0
BITMAP
ENDCHAR
STARTCHAR 0192
ENCODING 402
SWIDTH 516 0
DWIDTH 16 0
BBX 0 0 0 0
BITMAP
ENDCHAR
STARTCHAR 02C6
ENCODING 710
SWIDTH 516 0
DWIDTH 16 0
BBX 0 0 0 0
BITMAP
ENDCHAR
STARTCHAR 02DC
ENCODING 732
SWIDTH 516 0
DWIDTH 16 0
BBX 0 0 0 0
BITMAP
ENDCHAR
STARTCHAR 2013
ENCODING 8211
SWIDTH 516 0
DWIDTH 16 0
BBX 0 0 0 0
BITMAP
ENDCHAR
STARTCHAR 2014
ENCODING 8212
SWIDTH 516 0
DWIDTH 16 0
BBX 0 0 0 0
BITMAP
ENDCHAR
STARTCHAR 2018
ENCODING 8216
SWIDTH 516 0
DWIDTH 16 0
BBX 0 0 0 0
BITMAP
ENDCHAR
STARTCHAR 2019
ENCODING 8217
SWIDTH 516 0
DWIDTH 16 0
BBX 0 0 0 0
BITMAP
ENDCHAR
STARTCHAR 201A
ENCODING 8218
SWIDTH 516 0
DWIDTH 16 0
BBX 0 0 0 0
BITMAP
ENDCHAR
STARTCHAR 201C
ENCODING 8220
SWIDTH 516 0
DWIDTH 16 0
BBX 0 0 0 0
BITMAP
ENDCHAR
STARTCHAR 201D
ENCODING 8221
SWIDTH 516 0
DWIDTH 16 0
BBX 0 0 0 0
BITMAP
ENDCHAR
STARTCHAR 201E
ENCODING 8222
SWIDTH 516 0
DWIDTH 16 0
BBX 0 0 0 0
BITMAP
ENDCHAR
STARTCHAR 2020
ENCODING 8224
SWIDTH 516 0
DWIDTH 16 0
BBX 0 0 0 0
BITMAP
ENDCHAR
STARTCHAR 2021
ENCODING 8225
SWIDTH 516 0
DWIDTH 16 0
BBX 0 0 0 0
BITMAP
ENDCHAR
STARTCHAR 2022
ENCODING 8226
SWIDTH 516 0
DWIDTH 16 0
BBX 0 0 0 0
BITMAP
ENDCHAR
STARTCHAR 2026
ENCODING 8230
SWIDTH 516 0
DWIDTH 16 0
BBX 0 0 0 0
BITMAP
ENDCHAR
STARTCHAR 2030
ENCODING 8240
SWIDTH 516 0
DWIDTH 16 0
BBX 0 0 0 0
BITMAP
ENDCHAR
STARTCHAR 2039
ENCODING 8249
SWIDTH 516 0
DWIDTH 16 0
BBX 0 0 0 0
BITMAP
ENDCHAR
STARTCHAR 203A
ENCODING 8250
SWIDTH 516 0
DWIDTH 16 0
BBX 0 0 0 0
BITMAP
ENDCHAR
STARTCHAR 20AC
ENCODING 8364
SWIDTH 516 0
DWIDTH 16 0
BBX 0 0 0 0
BITMAP
ENDCHAR
STARTCHAR 2122
ENCODING 8482
SWIDTH 516 0
DWIDTH 16 0
BBX 0 0 0 0
BITMAP
ENDCHAR
STARTCHAR 2219
ENCODING 8729
SWIDTH 516 0
DWIDTH 16 0
BBX 0 0 0 0
BITMAP
ENDCHAR
ENDFONT
